<?xml version="1.0" encoding="utf-8"?>
<!-- Generator: Adobe Illustrator 18.1.1, SVG Export Plug-In . SVG Version: 6.00 Build 0)  -->
<svg version="1.1" id="Ebene_1" xmlns="http://www.w3.org/2000/svg" xmlns:xlink="http://www.w3.org/1999/xlink" x="0px" y="0px"
	 viewBox="0 0 387.6 387.6" enable-background="new 0 0 387.6 387.6" xml:space="preserve">
<rect y="0" fill="#262626" width="387.6" height="387.6"/>
<g>
	<polygon opacity="0.5" points="387.6,351.1 387.6,341.2 241.6,195.1 387.6,49.1 387.6,39.2 231.7,195.1 	"/>
	<polygon opacity="0.5" points="387.6,274.2 387.6,264.3 318.5,195.1 387.6,125.9 387.6,116 308.6,195.1 	"/>
	<polygon opacity="0.5" points="387.6,312.6 387.6,302.7 280,195.1 387.6,87.5 387.6,77.6 270.1,195.1 	"/>
	<polygon opacity="0.5" points="118.2,387.6 128.1,387.6 196.1,319.6 264.1,387.6 274,387.6 196.1,309.7 	"/>
	<polygon opacity="0.5" points="41.3,387.6 51.2,387.6 196.1,242.8 341,387.6 350.9,387.6 196.1,232.9 	"/>
	<polygon opacity="0.5" points="156.6,387.6 166.5,387.6 196.1,358 225.7,387.6 235.6,387.6 196.1,348.1 	"/>
	<polygon opacity="0.5" points="79.7,387.6 89.6,387.6 196.1,281.2 302.5,387.6 312.4,387.6 196.1,271.3 	"/>
	<polygon opacity="0.5" points="387.6,235.8 387.6,225.9 356.9,195.1 387.6,164.4 387.6,154.5 347,195.1 	"/>
	<polygon opacity="0.5" points="0,111.6 0,121.5 71.5,193 0,264.4 0,274.3 81.4,193 	"/>
	<polygon opacity="0.5" points="0,150.1 0,160 33,193 0,226 0,235.9 42.9,193 	"/>
	<polygon opacity="0.5" points="0,73.2 0,83.1 109.9,193 0,302.9 0,312.8 119.8,193 	"/>
	<polygon opacity="0.5" points="233.8,0 223.9,0 193.8,30.1 163.8,0 153.9,0 193.8,40 	"/>
	<polygon opacity="0.5" points="0,34.8 0,44.7 148.3,193 0,341.3 0,351.2 158.2,193 	"/>
	<polygon opacity="0.5" points="310.6,0 300.7,0 193.8,106.9 86.9,0 77,0 193.8,116.8 	"/>
	<polygon opacity="0.5" points="272.2,0 262.3,0 193.8,68.5 125.3,0 115.4,0 193.8,78.4 	"/>
	<polygon points="0,377.2 0,387.6 10.4,387.6 193.8,204.3 377.2,387.6 387.6,387.6 387.6,377.2 204.3,193.8 387.6,10.4 387.6,0
		377.2,0 193.8,183.4 10.4,0 0,0 0,10.4 183.4,193.8 	"/>
	<polygon opacity="0.5" points="349.1,0 339.2,0 193.8,145.3 48.5,0 38.6,0 193.8,155.2 	"/>
</g>
</svg>
