<svg xmlns="http://www.w3.org/2000/svg" viewBox="0 0 387.6 387.6"><path fill="#262626" d="M0 0h387.6v387.6H0z"/><path opacity=".5" d="M387.6 351.1v-9.9l-146-146.1 146-146v-9.9L231.7 195.1"/><path opacity=".5" d="M387.6 274.2v-9.9l-69.1-69.2 69.1-69.2V116l-79 79.1"/><path opacity=".5" d="M387.6 312.6v-9.9L280 195.1 387.6 87.5v-9.9L270.1 195.1M118.2 387.6h9.9l68-68 68 68h9.9l-77.9-77.9"/><path opacity=".5" d="M41.3 387.6h9.9l144.9-144.8L341 387.6h9.9L196.1 232.9"/><path opacity=".5" d="M156.6 387.6h9.9l29.6-29.6 29.6 29.6h9.9l-39.5-39.5"/><path opacity=".5" d="M79.7 387.6h9.9l106.5-106.4 106.4 106.4h9.9L196.1 271.3M387.6 235.8v-9.9l-30.7-30.8 30.7-30.7v-9.9L347 195.1M0 111.6v9.9L71.5 193 0 264.4v9.9L81.4 193"/><path opacity=".5" d="M0 150.1v9.9l33 33-33 33v9.9L42.9 193"/><path opacity=".5" d="M0 73.2v9.9L109.9 193 0 302.9v9.9L119.8 193M233.8 0h-9.9l-30.1 30.1-30-30.1h-9.9l39.9 40"/><path opacity=".5" d="M0 34.8v9.9L148.3 193 0 341.3v9.9L158.2 193M310.6 0h-9.9L193.8 106.9 86.9 0H77l116.8 116.8"/><path opacity=".5" d="M272.2 0h-9.9l-68.5 68.5L125.3 0h-9.9l78.4 78.4"/><path d="M0 377.2v10.4h10.4l183.4-183.3 183.4 183.3h10.4v-10.4L204.3 193.8 387.6 10.4V0h-10.4L193.8 183.4 10.4 0H0v10.4l183.4 183.4"/><path opacity=".5" d="M349.1 0h-9.9L193.8 145.3 48.5 0h-9.9l155.2 155.2"/></svg>